<svg width="20" height="20" viewBox="0 0 20 20" fill="none" xmlns="http://www.w3.org/2000/svg">
<g clip-path="url(#clip0_294_1267)">
<path d="M15.226 1.353L14.878 0.282996C14.8491 0.200044 14.7952 0.128136 14.7236 0.0772498C14.652 0.0263636 14.5663 -0.000976562 14.4785 -0.000976562C14.3907 -0.000976563 14.305 0.0263636 14.2334 0.0772498C14.1618 0.128136 14.1079 0.200044 14.079 0.282996L13.731 1.353C13.6248 1.67628 13.4452 1.97061 13.2063 2.21297C12.9674 2.45532 12.6757 2.63912 12.354 2.75L11.283 3.098C11.2004 3.12707 11.1289 3.18107 11.0782 3.25254C11.0276 3.32401 11.0005 3.40942 11.0005 3.497C11.0005 3.58457 11.0276 3.66998 11.0782 3.74145C11.1289 3.81292 11.2004 3.86692 11.283 3.896L12.354 4.244C12.6804 4.35271 12.9768 4.53618 13.2197 4.77977C13.4626 5.02335 13.6452 5.32032 13.753 5.647L14.101 6.717C14.1301 6.7996 14.1841 6.87114 14.2555 6.92175C14.327 6.97236 14.4124 6.99954 14.5 6.99954C14.5876 6.99954 14.673 6.97236 14.7445 6.92175C14.8159 6.87114 14.8699 6.7996 14.899 6.717L15.248 5.647C15.3563 5.32143 15.539 5.02562 15.7817 4.7831C16.0244 4.54057 16.3204 4.35803 16.646 4.25L17.718 3.902C17.8006 3.87292 17.8721 3.81892 17.9228 3.74745C17.9734 3.67598 18.0005 3.59057 18.0005 3.503C18.0005 3.41542 17.9734 3.33001 17.9228 3.25854C17.8721 3.18707 17.8006 3.13307 17.718 3.104L17.696 3.098L16.624 2.75C16.2984 2.64182 16.0026 2.45923 15.7599 2.21673C15.5172 1.97423 15.3344 1.67849 15.226 1.353ZM19.017 7.965L19.783 8.213L19.798 8.217C19.8566 8.23815 19.9073 8.27687 19.9431 8.32787C19.9789 8.37887 19.9981 8.43968 19.9981 8.502C19.9981 8.56431 19.9789 8.62512 19.9431 8.67612C19.9073 8.72712 19.8566 8.76584 19.798 8.78699L19.033 9.035C18.8002 9.11213 18.5886 9.2425 18.415 9.41575C18.2414 9.58899 18.1106 9.80034 18.033 10.033L17.785 10.798C17.7643 10.8571 17.7258 10.9082 17.6747 10.9444C17.6236 10.9807 17.5626 11.0001 17.5 11.0001C17.4374 11.0001 17.3764 10.9807 17.3253 10.9444C17.2742 10.9082 17.2357 10.8571 17.215 10.798L16.966 10.034C16.8892 9.80063 16.7588 9.58848 16.5854 9.4145C16.4119 9.24051 16.2001 9.10952 15.967 9.03199L15.202 8.783C15.1434 8.76184 15.0927 8.72312 15.0569 8.67212C15.0211 8.62112 15.0019 8.56031 15.0019 8.498C15.0019 8.43568 15.0211 8.37487 15.0569 8.32387C15.0927 8.27287 15.1434 8.23415 15.202 8.213L15.967 7.965C16.197 7.88565 16.4054 7.75419 16.5761 7.58088C16.7468 7.40757 16.8751 7.19713 16.951 6.966L17.2 6.202C17.2207 6.14293 17.2592 6.09175 17.3103 6.05554C17.3614 6.01934 17.4224 5.99989 17.485 5.99989C17.5476 5.99989 17.6086 6.01934 17.6597 6.05554C17.7107 6.09175 17.7493 6.14293 17.77 6.202L18.019 6.966C18.0961 7.19869 18.2265 7.41018 18.3998 7.58361C18.573 7.75704 18.7844 7.88764 19.017 7.965ZM14 8.5C13.9761 8.35765 13.9761 8.21234 14 8.06999V7.856C13.8597 7.81366 13.7277 7.74735 13.61 7.66C13.3991 7.48633 13.2399 7.25801 13.15 7L13 6.486V16H6C5.46957 16 4.96086 15.7893 4.58579 15.4142C4.21071 15.0391 4 14.5304 4 14V5C4 4.73478 4.10536 4.48043 4.29289 4.29289C4.48043 4.10535 4.73478 4 5 4H10.097C10.0348 3.84054 10.0019 3.67115 10 3.5C10.004 3.3283 10.0396 3.15881 10.105 3H5C4.46957 3 3.96086 3.21071 3.58579 3.58578C3.21071 3.96085 3 4.46956 3 5V14C3 14.7956 3.31607 15.5587 3.87868 16.1213C4.44129 16.6839 5.20435 17 6 17H14C14.7956 17 15.5587 16.6839 16.1213 16.1213C16.6839 15.5587 17 14.7956 17 14V12.5C17 12.3674 16.9473 12.2402 16.8536 12.1464C16.7598 12.0527 16.6326 12 16.5 12H14V8.5ZM14 13H16V14C16 14.5304 15.7893 15.0391 15.4142 15.4142C15.0391 15.7893 14.5304 16 14 16V13ZM6 6.5C6 6.36739 6.05268 6.24021 6.14645 6.14644C6.24021 6.05267 6.36739 6 6.5 6H10.5C10.6326 6 10.7598 6.05267 10.8536 6.14644C10.9473 6.24021 11 6.36739 11 6.5C11 6.6326 10.9473 6.75978 10.8536 6.85355C10.7598 6.94732 10.6326 7 10.5 7H6.5C6.36739 7 6.24021 6.94732 6.14645 6.85355C6.05268 6.75978 6 6.6326 6 6.5ZM6 9.5C6 9.36739 6.05268 9.24021 6.14645 9.14644C6.24021 9.05267 6.36739 9 6.5 9H10.5C10.6326 9 10.7598 9.05267 10.8536 9.14644C10.9473 9.24021 11 9.36739 11 9.5C11 9.6326 10.9473 9.75978 10.8536 9.85355C10.7598 9.94732 10.6326 10 10.5 10H6.5C6.36739 10 6.24021 9.94732 6.14645 9.85355C6.05268 9.75978 6 9.6326 6 9.5ZM6 12.5C6 12.3674 6.05268 12.2402 6.14645 12.1464C6.24021 12.0527 6.36739 12 6.5 12H8.5C8.63261 12 8.75979 12.0527 8.85355 12.1464C8.94732 12.2402 9 12.3674 9 12.5C9 12.6326 8.94732 12.7598 8.85355 12.8535C8.75979 12.9473 8.63261 13 8.5 13H6.5C6.36739 13 6.24021 12.9473 6.14645 12.8535C6.05268 12.7598 6 12.6326 6 12.5Z" fill="#A175FF"/>
</g>
<defs>
<clipPath id="clip0_294_1267">
<rect width="20" height="20" fill="white"/>
</clipPath>
</defs>
</svg>
