<svg width="21" height="20" viewBox="0 0 21 20" fill="none" xmlns="http://www.w3.org/2000/svg">
<g clip-path="url(#clip0_670_745)">
<path d="M4.25 1.25V1.875C4.25 2.4625 4.5925 2.7575 5.25 3.25L5.3 3.2875C5.8925 3.73125 6.75 4.3725 6.75 5.625V6.25H5.5V5.625C5.5 5.0375 5.1575 4.7425 4.5 4.25L4.45 4.2125C3.8575 3.76875 3 3.1275 3 1.875V1.25H4.25ZM8 1.25V1.875C8 2.4625 8.3425 2.7575 9 3.25L9.05 3.2875C9.6425 3.73125 10.5 4.3725 10.5 5.625V6.25H9.25V5.625C9.25 5.0375 8.9075 4.7425 8.25 4.25L8.2 4.2125C7.6075 3.76875 6.75 3.1275 6.75 1.875V1.25H8ZM11.75 1.25V1.875C11.75 2.4625 12.0925 2.7575 12.75 3.25L12.8 3.2875C13.3925 3.73125 14.25 4.3725 14.25 5.625V6.25H13V5.625C13 5.0375 12.6575 4.7425 12 4.25L11.95 4.2125C11.3575 3.76875 10.5 3.1275 10.5 1.875V1.25H11.75Z" fill="black"/>
<path fill-rule="evenodd" clip-rule="evenodd" d="M3 8.75L4.25 7.5H17.375C18.2038 7.5 18.9987 7.82924 19.5847 8.41529C20.1708 9.00134 20.5 9.7962 20.5 10.625C20.5 11.4538 20.1708 12.2487 19.5847 12.8347C18.9987 13.4208 18.2038 13.75 17.375 13.75H16.5925C16.3149 14.8233 15.6887 15.774 14.8122 16.4527C13.9357 17.1315 12.8586 17.4999 11.75 17.5H8C6.67392 17.5 5.40215 16.9732 4.46447 16.0355C3.52678 15.0979 3 13.8261 3 12.5V8.75ZM15.5 12.5V8.75H4.25V12.5C4.25 13.4946 4.64509 14.4484 5.34835 15.1517C6.05161 15.8549 7.00544 16.25 8 16.25H11.75C12.7446 16.25 13.6984 15.8549 14.4017 15.1517C15.1049 14.4484 15.5 13.4946 15.5 12.5ZM16.75 8.75V12.5H17.375C17.8723 12.5 18.3492 12.3025 18.7008 11.9508C19.0525 11.5992 19.25 11.1223 19.25 10.625C19.25 10.1277 19.0525 9.65081 18.7008 9.29917C18.3492 8.94754 17.8723 8.75 17.375 8.75H16.75Z" fill="black"/>
</g>
<defs>
<clipPath id="clip0_670_745">
<rect width="20" height="20" fill="white" transform="translate(0.5)"/>
</clipPath>
</defs>
</svg>
