<svg width="20" height="20" viewBox="0 0 20 20" fill="none" xmlns="http://www.w3.org/2000/svg">
<path d="M14.9175 6.33374H8.66134C7.83441 6.33374 7.16406 7.00859 7.16406 7.84107V15.6873C7.16406 16.5198 7.83441 17.1947 8.66134 17.1947H14.9175C15.7443 17.1947 16.4147 16.5198 16.4147 15.6873V7.84107C16.4147 7.00859 15.7443 6.33374 14.9175 6.33374Z" stroke="#6F6F87" stroke-width="1.75" stroke-linecap="round" stroke-linejoin="round"/>
<path d="M12.8327 6.33363V4.313C12.8327 3.91323 12.675 3.52983 12.3941 3.24715C12.1133 2.96447 11.7325 2.80566 11.3354 2.80566H5.07929C4.68219 2.80566 4.30136 2.96447 4.02057 3.24715C3.73978 3.52983 3.58203 3.91323 3.58203 4.313V12.1593C3.58203 12.5591 3.73978 12.9424 4.02057 13.2251C4.30136 13.5078 4.68219 13.6666 5.07929 13.6666H7.16736" stroke="#6F6F87" stroke-width="1.75" stroke-linecap="round" stroke-linejoin="round"/>
</svg>
