<svg width="20" height="20" viewBox="0 0 20 20" fill="none" xmlns="http://www.w3.org/2000/svg">
<path d="M15.2721 6.07153H8.56907C7.68308 6.07153 6.96484 6.79459 6.96484 7.68653V16.0932C6.96484 16.9852 7.68308 17.7082 8.56907 17.7082H15.2721C16.158 17.7082 16.8762 16.9852 16.8762 16.0932V7.68653C16.8762 6.79459 16.158 6.07153 15.2721 6.07153Z" stroke="#1E1E2F" stroke-width="1.5" stroke-linecap="round" stroke-linejoin="round"/>
<path d="M13.0345 6.07172V3.90675C13.0345 3.47842 12.8655 3.06764 12.5646 2.76477C12.2637 2.4619 11.8557 2.29175 11.4302 2.29175H4.72725C4.30179 2.29175 3.89376 2.4619 3.59291 2.76477C3.29206 3.06764 3.12305 3.47842 3.12305 3.90675V12.3135C3.12305 12.7418 3.29206 13.1526 3.59291 13.4554C3.89376 13.7583 4.30179 13.9285 4.72725 13.9285H6.96447" stroke="#1E1E2F" stroke-width="1.5" stroke-linecap="round" stroke-linejoin="round"/>
</svg>
