<svg width="16" height="16" viewBox="0 0 16 16" fill="none" xmlns="http://www.w3.org/2000/svg">
<path d="M7.01367 8.98645C7.52481 9.49765 8.21827 9.78518 8.94154 9.78578C9.18061 9.78245 9.41861 9.75198 9.6508 9.69498C10.1111 9.56718 10.5308 9.32318 10.8693 8.98645L11.515 8.34158L13.4337 6.4159C13.9156 5.89934 14.1779 5.21611 14.1655 4.51016C14.153 3.8042 13.8667 3.13064 13.3669 2.63138C12.867 2.13212 12.1927 1.84613 11.4859 1.83368C10.7792 1.82122 10.0952 2.08326 9.57807 2.5646L7.65934 4.49026" stroke="#007AFF" stroke-width="1.5" stroke-linecap="round" stroke-linejoin="round"/>
<path d="M8.29726 11.5571L6.36947 13.4827C5.84875 13.9428 5.17183 14.187 4.47697 14.1653C3.7821 14.1436 3.12173 13.8578 2.63073 13.3662C2.13973 12.8746 1.85515 12.2143 1.83512 11.5202C1.81508 10.826 2.0611 10.1505 2.52293 9.63143L4.45074 7.70576L5.09638 7.06083C5.43493 6.72409 5.85457 6.48012 6.31491 6.35237C6.77806 6.22859 7.26566 6.22891 7.72859 6.35329C8.19159 6.47767 8.61353 6.72169 8.95199 7.06083" stroke="#007AFF" stroke-width="1.5" stroke-linecap="round" stroke-linejoin="round"/>
</svg>
