<svg width="1440" height="552" viewBox="0 0 1440 552" fill="none" xmlns="http://www.w3.org/2000/svg">
<rect x="973" y="34" width="90" height="90" rx="16" fill="#F2F2F2"/>
<rect x="1260" y="61" width="90" height="90" rx="16" fill="#F2F2F2"/>
<rect x="908" y="389" width="90" height="90" rx="16" fill="#F2F2F2"/>
<rect x="1136" y="434" width="90" height="90" rx="16" fill="#F2F2F2"/>
<rect x="484" y="462" width="90" height="90" rx="16" fill="#F2F2F2"/>
<rect y="176" width="90" height="90" rx="16" fill="#F2F2F2"/>
<rect x="109" y="417" width="90" height="90" rx="16" fill="#F2F2F2"/>
<rect x="199" width="90" height="90" rx="16" fill="#F2F2F2"/>
<rect x="439" y="84" width="90" height="90" rx="16" fill="#F2F2F2"/>
<rect x="316" y="276" width="90" height="90" rx="16" fill="#F2F2F2"/>
<rect x="1110" y="195" width="90" height="90" rx="16" fill="#F2F2F2"/>
<rect x="1350" y="372" width="90" height="90" rx="16" fill="#F2F2F2"/>
</svg>
