<svg width="16" height="16" viewBox="0 0 16 16" fill="none" xmlns="http://www.w3.org/2000/svg">
<path d="M2.66797 3.33341C2.66797 3.1566 2.73821 2.98703 2.86323 2.86201C2.98826 2.73699 3.15782 2.66675 3.33464 2.66675H6.0013C6.17811 2.66675 6.34768 2.73699 6.47271 2.86201C6.59773 2.98703 6.66797 3.1566 6.66797 3.33341V6.66675C6.66797 6.84356 6.59773 7.01313 6.47271 7.13815C6.34768 7.26318 6.17811 7.33341 6.0013 7.33341H3.33464C3.15782 7.33341 2.98826 7.26318 2.86323 7.13815C2.73821 7.01313 2.66797 6.84356 2.66797 6.66675V3.33341ZM9.33464 3.33341C9.33464 3.1566 9.40487 2.98703 9.5299 2.86201C9.65492 2.73699 9.82449 2.66675 10.0013 2.66675H12.668C12.8448 2.66675 13.0143 2.73699 13.1394 2.86201C13.2644 2.98703 13.3346 3.1566 13.3346 3.33341V4.66675C13.3346 4.84356 13.2644 5.01313 13.1394 5.13815C13.0143 5.26318 12.8448 5.33341 12.668 5.33341H10.0013C9.82449 5.33341 9.65492 5.26318 9.5299 5.13815C9.40487 5.01313 9.33464 4.84356 9.33464 4.66675V3.33341ZM2.66797 10.6667C2.66797 10.4899 2.73821 10.3204 2.86323 10.1953C2.98826 10.0703 3.15782 10.0001 3.33464 10.0001H6.0013C6.17811 10.0001 6.34768 10.0703 6.47271 10.1953C6.59773 10.3204 6.66797 10.4899 6.66797 10.6667V12.6667C6.66797 12.8436 6.59773 13.0131 6.47271 13.1382C6.34768 13.2632 6.17811 13.3334 6.0013 13.3334H3.33464C3.15782 13.3334 2.98826 13.2632 2.86323 13.1382C2.73821 13.0131 2.66797 12.8436 2.66797 12.6667V10.6667ZM9.33464 8.66675C9.33464 8.48994 9.40487 8.32037 9.5299 8.19534C9.65492 8.07032 9.82449 8.00008 10.0013 8.00008H12.668C12.8448 8.00008 13.0143 8.07032 13.1394 8.19534C13.2644 8.32037 13.3346 8.48994 13.3346 8.66675V12.6667C13.3346 12.8436 13.2644 13.0131 13.1394 13.1382C13.0143 13.2632 12.8448 13.3334 12.668 13.3334H10.0013C9.82449 13.3334 9.65492 13.2632 9.5299 13.1382C9.40487 13.0131 9.33464 12.8436 9.33464 12.6667V8.66675Z" stroke="#49454F" stroke-width="1.2"/>
</svg>
