<svg width="29" height="28" viewBox="0 0 29 28" fill="none" xmlns="http://www.w3.org/2000/svg">
<path d="M25.2913 15.1668V9.91683C25.2913 8.36973 24.6768 6.886 23.5828 5.79204C22.4888 4.69808 21.0051 4.0835 19.458 4.0835H9.54134C7.99424 4.0835 6.51051 4.69808 5.41655 5.79204C4.32259 6.886 3.70801 8.36973 3.70801 9.91683V18.0835C3.70801 18.8495 3.85889 19.6081 4.15204 20.3158C4.4452 21.0235 4.87488 21.6666 5.41655 22.2083C6.51051 23.3022 7.99424 23.9168 9.54134 23.9168H16.8447" stroke="#8E8E93" stroke-width="1.75" stroke-linecap="round" stroke-linejoin="round"/>
<path d="M4.01074 19.8336L7.20741 16.1003C7.62722 15.6834 8.1782 15.4243 8.7671 15.3669C9.356 15.3094 9.94664 15.4573 10.4391 15.7853C10.9315 16.1133 11.5222 16.2612 12.111 16.2038C12.6999 16.1464 13.2509 15.8873 13.6707 15.4703L16.3891 12.752C17.1701 11.9683 18.2043 11.4876 19.3069 11.3957C20.4096 11.3038 21.5091 11.6067 22.4091 12.2503L25.2907 14.4786M9.84407 11.8653C10.0984 11.8638 10.3499 11.8122 10.5843 11.7134C10.8187 11.6147 11.0313 11.4707 11.2101 11.2898C11.3888 11.1089 11.5302 10.8946 11.6261 10.659C11.722 10.4234 11.7706 10.1713 11.7691 9.91698C11.7675 9.66265 11.7159 9.41112 11.6172 9.17674C11.5184 8.94236 11.3745 8.72972 11.1936 8.55097C11.0127 8.37221 10.7983 8.23085 10.5628 8.13493C10.3272 8.03902 10.0751 7.99045 9.82074 7.99198C9.30711 7.99507 8.81574 8.20208 8.45473 8.56746C8.09372 8.93285 7.89265 9.42668 7.89574 9.94031C7.89884 10.4539 8.10584 10.9453 8.47123 11.3063C8.83661 11.6673 9.33044 11.8684 9.84407 11.8653Z" stroke="#8E8E93" stroke-width="1.75" stroke-linecap="round" stroke-linejoin="round"/>
<path d="M22.3242 17.5002V23.3336" stroke="#8E8E93" stroke-width="1.75" stroke-miterlimit="10" stroke-linecap="round"/>
<path d="M24.9997 19.9561L22.7049 17.6612C22.6552 17.6108 22.596 17.5709 22.5307 17.5436C22.4654 17.5163 22.3953 17.5022 22.3246 17.5022C22.2538 17.5022 22.1838 17.5163 22.1185 17.5436C22.0532 17.5709 21.994 17.6108 21.9442 17.6612L19.6494 19.9561" stroke="#8E8E93" stroke-width="1.75" stroke-linecap="round" stroke-linejoin="round"/>
</svg>
