<svg width="20" height="16" viewBox="0 0 20 16" fill="none" xmlns="http://www.w3.org/2000/svg">
<path d="M19.7904 6.993C18.9657 4.97636 17.58 3.23997 15.7984 1.99078C14.0767 0.85518 12.0609 0.25 10 0.25C7.93907 0.25 5.92327 0.85518 4.2016 1.99078C2.41724 3.23704 1.0308 4.97433 0.20958 6.993C0.0730999 7.3089 0.00181 7.6492 0 7.9934C0.00443 8.3364 0.0721 8.6756 0.19961 8.9939C1.02132 11.0122 2.40766 12.7494 4.19162 13.9961C5.87681 15.1859 7.89954 15.7998 9.9601 15.7468H10.2595C12.2387 15.7499 14.1715 15.1459 15.7984 14.0161C17.5832 12.7702 18.9697 11.0328 19.7904 9.0139C19.9266 8.6979 19.9979 8.3576 20 8.0134C19.9969 7.6629 19.9257 7.3163 19.7904 6.993ZM10.02 11.7751C9.2774 11.7771 8.5509 11.5581 7.93248 11.146C7.31407 10.7339 6.83155 10.1471 6.546 9.4599C6.26045 8.7727 6.18472 8.0161 6.32838 7.2857C6.47204 6.5554 6.82864 5.88417 7.35304 5.35709C7.87743 4.83001 8.546 4.47076 9.2742 4.3248C10.0024 4.17884 10.7574 4.25275 11.4437 4.53716C12.1299 4.82158 12.7166 5.30371 13.1294 5.92253C13.5421 6.5413 13.7625 7.269 13.7625 8.0134C13.7638 8.5103 13.6667 9.0025 13.4767 9.4615C13.2867 9.9205 13.0077 10.337 12.6558 10.687C12.3039 11.037 11.8862 11.3134 11.4268 11.5001C10.9675 11.6869 10.4757 11.7804 9.98 11.7751H10.02Z" fill="#6F6F87"/>
</svg>
