<svg width="24" height="25" viewBox="0 0 24 25" fill="none" xmlns="http://www.w3.org/2000/svg">
<path fill-rule="evenodd" clip-rule="evenodd" d="M2.29283 2.79289C2.68336 2.40237 3.31652 2.40237 3.70705 2.79289C9.71605 8.8019 15.7036 14.7894 21.707 20.7929C22.0976 21.1834 22.0976 21.8166 21.707 22.2071C21.3165 22.5976 20.6834 22.5976 20.2928 22.2071L17.1391 19.0534C15.6943 19.8988 13.9716 20.5 11.9999 20.5C9.13826 20.5 6.80527 19.2353 5.07667 17.7926C3.35042 16.3518 2.16689 14.6857 1.57415 13.7472L1.55006 13.7092C1.43242 13.524 1.27969 13.2836 1.20249 12.9468C1.14017 12.6748 1.14019 12.325 1.20255 12.053C1.27979 11.7161 1.43296 11.4751 1.5509 11.2895L1.57518 11.2512C2.17755 10.2977 3.40084 8.57527 5.19529 7.10956L2.29283 4.20711C1.90231 3.81658 1.90231 3.18342 2.29283 2.79289ZM8.55386 10.4681C8.2021 11.0638 7.99994 11.7591 7.99994 12.4999C7.99994 14.7091 9.7908 16.4999 11.9999 16.4999C12.7409 16.4999 13.4361 16.2977 14.0317 15.946L12.5181 14.4324C12.353 14.4765 12.1794 14.4999 11.9999 14.4999C10.8954 14.4999 9.99994 13.6045 9.99994 12.4999C9.99994 12.3204 10.0234 12.1468 10.0675 11.9818L8.55386 10.4681Z" fill="#6F6F87"/>
<path d="M15.9922 12.2496C15.8681 10.2399 14.26 8.63182 12.2503 8.50771L8.79156 5.04897C9.77116 4.70697 10.8423 4.5 11.9999 4.5C14.8616 4.5 17.1946 5.76472 18.9232 7.20743C20.6494 8.64818 21.833 10.3143 22.4257 11.2528L22.4498 11.2908C22.5674 11.476 22.7201 11.7163 22.7973 12.0532C22.8597 12.3251 22.8597 12.6749 22.7973 12.9468C22.7201 13.2837 22.5674 13.524 22.4498 13.7092L22.4257 13.7472C22.0022 14.4177 21.2772 15.4597 20.2681 16.5255L15.9922 12.2496Z" fill="#6F6F87"/>
</svg>
