<svg width="16" height="16" viewBox="0 0 16 16" fill="none" xmlns="http://www.w3.org/2000/svg">
<g clip-path="url(#clip0_294_4196)">
<path d="M14.6654 7.99992C14.6654 11.1426 14.6654 12.7139 13.6887 13.6899C12.7134 14.6666 11.1414 14.6666 7.9987 14.6666C4.85603 14.6666 3.2847 14.6666 2.30803 13.6899C1.33203 12.7146 1.33203 11.1426 1.33203 7.99992C1.33203 4.85725 1.33203 3.28592 2.30803 2.30925C3.28536 1.33325 4.85603 1.33325 7.9987 1.33325" stroke="#49454F" stroke-width="1.2" stroke-linecap="round"/>
<path d="M1.33203 8.33322L2.50003 7.31122C2.79279 7.05527 3.17186 6.92011 3.56051 6.93311C3.94916 6.9461 4.31836 7.10628 4.59336 7.38122L7.45336 10.2412C7.6753 10.4631 7.9684 10.5996 8.28106 10.6267C8.59373 10.6538 8.90592 10.5697 9.1627 10.3892L9.36203 10.2492C9.73243 9.98908 10.1801 9.86227 10.6319 9.88951C11.0837 9.91676 11.5129 10.0965 11.8494 10.3992L13.9987 12.3332" stroke="#49454F" stroke-width="1.2" stroke-linecap="round"/>
<path d="M11.9987 2.64531L11.644 2.99797C11.6905 3.04474 11.7458 3.08185 11.8066 3.10717C11.8675 3.1325 11.9328 3.14554 11.9987 3.14554C12.0646 3.14554 12.1299 3.1325 12.1908 3.10717C12.2516 3.08185 12.3069 3.04474 12.3534 2.99797L11.9987 2.64531ZM11.0334 5.33597C10.7094 5.05464 10.3987 4.73931 10.172 4.41997C9.9407 4.09331 9.83203 3.81064 9.83203 3.58331H8.83203C8.83203 4.10864 9.0707 4.59531 9.35603 4.99797C9.64603 5.40731 10.022 5.78131 10.378 6.09064L11.0334 5.33597ZM9.83203 3.58331C9.83203 2.96131 10.112 2.64731 10.388 2.54531C10.672 2.44131 11.1414 2.49197 11.644 2.99797L12.3534 2.29264C11.6567 1.59264 10.792 1.33131 10.0427 1.60731C9.28536 1.88597 8.83203 2.64397 8.83203 3.58331H9.83203ZM13.6194 6.09064C13.9754 5.78131 14.3514 5.40731 14.6414 4.99797C14.9267 4.59531 15.1654 4.10864 15.1654 3.58331H14.1654C14.1654 3.81064 14.0567 4.09331 13.8254 4.41997C13.5987 4.73997 13.288 5.05464 12.964 5.33597L13.6194 6.09064ZM15.1654 3.58331C15.1654 2.64331 14.712 1.88597 13.9547 1.60731C13.2054 1.33131 12.3414 1.59197 11.644 2.29264L12.3534 2.99797C12.8567 2.49131 13.3254 2.44131 13.6094 2.54531C13.8854 2.64731 14.1654 2.96131 14.1654 3.58331H15.1654ZM10.378 6.09064C10.882 6.52931 11.2847 6.90397 11.9987 6.90397V5.90397C11.716 5.90397 11.5887 5.81797 11.0334 5.33597L10.378 6.09064ZM12.964 5.33597C12.4087 5.81797 12.2814 5.90397 11.9987 5.90397V6.90397C12.7127 6.90397 13.1154 6.52931 13.6194 6.09064L12.964 5.33597Z" fill="#49454F"/>
</g>
<defs>
<clipPath id="clip0_294_4196">
<rect width="16" height="16" fill="white"/>
</clipPath>
</defs>
</svg>
