<svg width="16" height="16" viewBox="0 0 16 16" fill="none" xmlns="http://www.w3.org/2000/svg">
<g clip-path="url(#clip0_294_4190)">
<path d="M12.0007 4V7.23533C12.0007 7.42867 12.0007 7.52533 11.9373 7.56467C11.874 7.60333 11.788 7.56 11.6147 7.474L10.7867 7.05933C10.728 7.03067 10.6987 7.016 10.6673 7.016C10.636 7.016 10.6067 7.03067 10.548 7.05933L9.71998 7.474C9.54665 7.56067 9.45998 7.60333 9.39732 7.56467C9.33398 7.52467 9.33398 7.42867 9.33398 7.23533V4" stroke="#49454F" stroke-width="1.2"/>
<path d="M1.33398 4.63337C1.33398 4.04471 1.33398 3.75071 1.38065 3.50537C1.48013 2.9786 1.73608 2.49404 2.11509 2.11491C2.4941 1.73578 2.97858 1.47969 3.50532 1.38004C3.75132 1.33337 4.04598 1.33337 4.63398 1.33337C4.89132 1.33337 5.02065 1.33337 5.14465 1.34471C5.67868 1.39486 6.18518 1.60489 6.59798 1.94737C6.69398 2.02671 6.78465 2.11737 6.96732 2.30004L7.33398 2.66671C7.87798 3.21071 8.14998 3.48271 8.47532 3.66337C8.65413 3.76304 8.84382 3.84178 9.04065 3.89804C9.39932 4.00004 9.78398 4.00004 10.5527 4.00004H10.802C12.5567 4.00004 13.4347 4.00004 14.0047 4.51337C14.0573 4.56004 14.1073 4.61004 14.154 4.66271C14.6673 5.23271 14.6673 6.11071 14.6673 7.86537V9.33337C14.6673 11.8474 14.6673 13.1047 13.886 13.8854C13.1053 14.6667 11.848 14.6667 9.33398 14.6667H6.66732C4.15332 14.6667 2.89598 14.6667 2.11532 13.8854C1.33398 13.1047 1.33398 11.8474 1.33398 9.33337V4.63337Z" stroke="#49454F" stroke-width="1.2"/>
</g>
<defs>
<clipPath id="clip0_294_4190">
<rect width="16" height="16" fill="white"/>
</clipPath>
</defs>
</svg>
