<svg width="20" height="20" viewBox="0 0 20 20" fill="none" xmlns="http://www.w3.org/2000/svg">
<path d="M11.0138 1.63022C10.9607 1.51687 10.8764 1.42099 10.7708 1.35382C10.6652 1.28665 10.5427 1.25098 10.4175 1.25098C10.2923 1.25098 10.1698 1.28665 10.0642 1.35382C9.95858 1.42099 9.87431 1.51687 9.82125 1.63022L9.33625 2.66939L8.29708 3.15439C8.18396 3.20755 8.08831 3.2918 8.02131 3.39732C7.9543 3.50283 7.91872 3.62524 7.91872 3.75022C7.91872 3.87521 7.9543 3.99762 8.02131 4.10313C8.08831 4.20864 8.18396 4.2929 8.29708 4.34606L9.33625 4.83106L9.82125 5.87022C9.8744 5.98335 9.95866 6.079 10.0642 6.146C10.1697 6.213 10.2921 6.24858 10.4171 6.24858C10.5421 6.24858 10.6645 6.213 10.77 6.146C10.8755 6.079 10.9598 5.98335 11.0129 5.87022L11.4979 4.83106L12.5371 4.34606C12.6502 4.2929 12.7459 4.20864 12.8129 4.10313C12.8799 3.99762 12.9154 3.87521 12.9154 3.75022C12.9154 3.62524 12.8799 3.50283 12.8129 3.39732C12.7459 3.2918 12.6502 3.20755 12.5371 3.15439L11.4979 2.66939L11.0138 1.63022ZM10.0638 3.07939L10.4171 2.32272L10.7704 3.07939C10.8364 3.21875 10.9486 3.33095 11.0879 3.39689L11.8446 3.75022L11.0879 4.10356C10.9486 4.16949 10.8364 4.2817 10.7704 4.42106L10.4171 5.17772L10.0638 4.42106C9.99781 4.2817 9.88561 4.16949 9.74625 4.10356L8.98958 3.75022L9.74625 3.39689C9.88561 3.33095 9.99781 3.21875 10.0638 3.07939ZM4.36042 4.15772C4.41713 4.03579 4.50749 3.93259 4.62088 3.86028C4.73426 3.78797 4.86594 3.74955 5.00042 3.74955C5.1349 3.74955 5.26658 3.78797 5.37996 3.86028C5.49334 3.93259 5.58371 4.03579 5.64042 4.15772L6.23542 5.43272L7.50958 6.02689C7.63152 6.0836 7.73472 6.17397 7.80703 6.28735C7.87934 6.40073 7.91776 6.53241 7.91776 6.66689C7.91776 6.80137 7.87934 6.93305 7.80703 7.04643C7.73472 7.15981 7.63152 7.25018 7.50958 7.30689L6.23458 7.90189L5.64042 9.17606C5.58371 9.29799 5.49334 9.40119 5.37996 9.4735C5.26658 9.54581 5.1349 9.58423 5.00042 9.58423C4.86594 9.58423 4.73426 9.54581 4.62088 9.4735C4.50749 9.40119 4.41713 9.29799 4.36042 9.17606L3.76542 7.90106L2.49125 7.30689C2.36931 7.25018 2.26612 7.15981 2.1938 7.04643C2.12149 6.93305 2.08308 6.80137 2.08308 6.66689C2.08308 6.53241 2.12149 6.40073 2.1938 6.28735C2.26612 6.17397 2.36931 6.0836 2.49125 6.02689L3.76625 5.43189L4.36042 4.15772ZM5.00042 4.75772L4.50125 5.82689C4.43093 5.9773 4.31 6.09823 4.15958 6.16856L3.09125 6.66689L4.16125 7.16606C4.31125 7.23606 4.43208 7.35772 4.50292 7.50772L5.00042 8.57606L5.49958 7.50606C5.56991 7.35564 5.69084 7.23471 5.84125 7.16439L6.90958 6.66689L5.83958 6.16772C5.68948 6.09724 5.56887 5.97633 5.49875 5.82606L5.00042 4.75772ZM15.1938 9.15772C15.2505 9.03579 15.3408 8.93259 15.4542 8.86028C15.5676 8.78797 15.6993 8.74955 15.8337 8.74955C15.9682 8.74955 16.0999 8.78797 16.2133 8.86028C16.3267 8.93259 16.417 9.03579 16.4738 9.15772L17.0688 10.4327L18.3429 11.0269C18.4649 11.0836 18.5681 11.174 18.6404 11.2873C18.7127 11.4007 18.7511 11.5324 18.7511 11.6669C18.7511 11.8014 18.7127 11.9331 18.6404 12.0464C18.5681 12.1598 18.4649 12.2502 18.3429 12.3069L17.0679 12.9019L16.4738 14.1761C16.417 14.298 16.3267 14.4012 16.2133 14.4735C16.0999 14.5458 15.9682 14.5842 15.8337 14.5842C15.6993 14.5842 15.5676 14.5458 15.4542 14.4735C15.3408 14.4012 15.2505 14.298 15.1938 14.1761L14.5988 12.9011L13.3246 12.3069C13.2026 12.2502 13.0994 12.1598 13.0271 12.0464C12.9548 11.9331 12.9164 11.8014 12.9164 11.6669C12.9164 11.5324 12.9548 11.4007 13.0271 11.2873C13.0994 11.174 13.2026 11.0836 13.3246 11.0269L14.5996 10.4319L15.1938 9.15772ZM16.6746 11.1677C16.5242 11.0974 16.4032 10.9765 16.3329 10.8261L15.8337 9.75772L15.3346 10.8277C15.2643 10.9781 15.1433 11.0991 14.9929 11.1694L13.9246 11.6669L14.9946 12.1661C15.1446 12.2361 15.2654 12.3577 15.3363 12.5077L15.8337 13.5761L16.3329 12.5061C16.4032 12.3556 16.5242 12.2347 16.6746 12.1644L17.7437 11.6669L16.6746 11.1677ZM7.40208 9.94022L10.3462 6.99606C10.4609 6.88123 10.6157 6.81549 10.7779 6.81272H10.8054C10.8603 6.81418 10.9151 6.81835 10.9696 6.82522C11.0679 6.83772 11.1988 6.86272 11.3513 6.91106C11.6571 7.00856 12.0446 7.20189 12.4179 7.57522C12.7912 7.94856 12.9846 8.33606 13.0821 8.64189C13.1345 8.80576 13.1672 8.97528 13.1796 9.14689L13.1804 9.18856V9.21439C13.1779 9.37691 13.1121 9.53288 12.9971 9.64772L4.17875 18.4669C4.06411 18.5817 3.90931 18.6475 3.74708 18.6502H3.71958C3.66463 18.6499 3.60978 18.6458 3.55542 18.6377C3.42587 18.6207 3.29812 18.5919 3.17375 18.5519C2.77037 18.4186 2.40466 18.1909 2.10708 17.8877C1.80389 17.5901 1.57618 17.2244 1.44292 16.8211C1.39048 16.6572 1.35775 16.4877 1.34542 16.3161L1.34375 16.2744V16.2486C1.3463 16.086 1.41206 15.9301 1.52708 15.8152L7.38958 9.95356L7.40208 9.94022ZM8.05042 11.0594L2.64208 16.4677C2.69042 16.6069 2.78792 16.8011 2.98958 17.0036C3.19208 17.2052 3.38625 17.3036 3.52542 17.3519L8.93375 11.9436C8.86103 11.7401 8.74274 11.5559 8.58792 11.4052C8.43743 11.2505 8.25359 11.1322 8.05042 11.0594ZM10.9987 8.11106L8.98125 10.1286C9.14208 10.2294 9.30792 10.3586 9.47125 10.5219C9.63542 10.6852 9.76375 10.8511 9.86458 11.0127L11.8821 8.99522C11.8083 8.79241 11.6892 8.60914 11.5338 8.45939C11.3842 8.30409 11.2013 8.18495 10.9987 8.11106Z" fill="#F9F9FC"/>
</svg>
