<svg width="24" height="24" viewBox="0 0 24 24" fill="none" xmlns="http://www.w3.org/2000/svg">
<g clip-path="url(#clip0_294_1636)">
<path d="M11.8611 0.444336C15.1389 0.444336 17.9352 1.60174 20.25 3.91656C22.5648 6.23137 23.7222 9.01841 23.7222 12.2777C23.7222 14.8703 22.963 17.1943 21.4444 19.2499C19.9259 21.3054 17.9815 22.7406 15.6111 23.5554C15.0926 23.6295 14.8333 23.4258 14.8333 22.9443V19.7221C14.8333 18.7221 14.5556 17.9814 14 17.4999C15.6296 17.3147 16.9352 16.8147 17.9167 15.9999C18.8981 15.1851 19.3889 13.7592 19.3889 11.7221C19.3889 10.4629 18.9815 9.38878 18.1667 8.49989C18.5741 7.53693 18.537 6.48137 18.0556 5.33322C17.3889 5.14804 16.3148 5.55545 14.8333 6.55545C13.8704 6.29619 12.8704 6.16656 11.8333 6.16656C10.7963 6.16656 9.81481 6.29619 8.88889 6.55545C8.22222 6.111 7.62037 5.78693 7.08333 5.58322C6.5463 5.37952 6.16667 5.29619 5.94444 5.33322H5.61111C5.16667 6.48137 5.12963 7.53693 5.5 8.49989C4.68518 9.38878 4.27778 10.4629 4.27778 11.7221C4.27778 13.7592 4.77778 15.1851 5.77778 15.9999C6.77778 16.8147 8.07407 17.3147 9.66667 17.4999C9.25926 17.8703 9.01852 18.4073 8.94444 19.111C7.38889 19.7777 6.24074 19.4443 5.5 18.111C5.05556 17.3703 4.44444 16.9629 3.66667 16.8888C3.59259 16.8888 3.50926 16.898 3.41667 16.9166C3.32407 16.9351 3.23148 16.9999 3.13889 17.111C3.0463 17.2221 3.2037 17.3888 3.61111 17.611C4.12963 17.8703 4.55556 18.4443 4.88889 19.3332C4.92593 19.4073 4.96296 19.4906 5 19.5832C5.03704 19.6758 5.15741 19.8517 5.36111 20.111C5.56481 20.3703 5.80556 20.5647 6.08333 20.6943C6.36111 20.824 6.74074 20.9443 7.22222 21.0554C7.7037 21.1666 8.25926 21.1295 8.88889 20.9443V22.9443C8.88889 23.4258 8.62963 23.6295 8.11111 23.5554C5.74074 22.7406 3.7963 21.3054 2.27778 19.2499C0.759259 17.1943 0 14.8703 0 12.2777C0 9.01841 1.15741 6.23137 3.47222 3.91656C5.78704 1.60174 8.58333 0.444336 11.8611 0.444336Z" fill="black"/>
</g>
<defs>
<clipPath id="clip0_294_1636">
<rect width="24" height="24" fill="white"/>
</clipPath>
</defs>
</svg>
