<svg width="20" height="20" viewBox="0 0 20 20" fill="none" xmlns="http://www.w3.org/2000/svg">
<path d="M15.5059 9.19584V15.8029C15.5074 16.0544 15.4588 16.3038 15.3629 16.5363C15.267 16.7688 15.1257 16.9798 14.9473 17.1572C14.769 17.3345 14.5571 17.4746 14.324 17.5691C14.091 17.6637 13.8414 17.7108 13.5899 17.7079H4.20781C3.95537 17.7109 3.7049 17.6633 3.4711 17.5681C3.23729 17.4728 3.02489 17.3318 2.84638 17.1533C2.66786 16.9748 2.52684 16.7624 2.4316 16.5286C2.33635 16.2948 2.28881 16.0443 2.29176 15.7919V6.40983C2.28881 6.15739 2.33635 5.90692 2.4316 5.67312C2.52684 5.43932 2.66786 5.22691 2.84638 5.0484C3.02489 4.86988 3.23729 4.72886 3.4711 4.63362C3.7049 4.53837 3.95537 4.49082 4.20781 4.49378H10.8149" stroke="#8E8E93" stroke-width="1.5" stroke-linecap="round" stroke-linejoin="round"/>
<path d="M17.7083 2.2915L8.8988 11.1009" stroke="#8E8E93" stroke-width="1.5" stroke-linecap="round" stroke-linejoin="round"/>
<path d="M13.3037 2.2915H17.7084V6.69623" stroke="#8E8E93" stroke-width="1.5" stroke-linecap="round" stroke-linejoin="round"/>
</svg>
