<svg width="20" height="20" viewBox="0 0 20 20" fill="none" xmlns="http://www.w3.org/2000/svg">
<path d="M15.0203 5.86934C14.0445 4.89648 12.8025 4.23429 11.4509 3.96628C10.0993 3.69826 8.69854 3.83641 7.42534 4.36333C6.15215 4.89024 5.06347 5.7823 4.29654 6.92706C3.52961 8.07183 3.11878 9.41805 3.11584 10.7959" stroke="white" stroke-width="1.5" stroke-miterlimit="10" stroke-linecap="round"/>
<path d="M14.4583 2.2915L15.1514 5.10135C15.1833 5.22384 15.19 5.35151 15.1712 5.47666C15.1523 5.60182 15.1083 5.72185 15.0418 5.82953C14.9753 5.9372 14.8876 6.03027 14.7841 6.10312C14.6807 6.17597 14.5634 6.22709 14.4397 6.25339L11.6298 6.95585" stroke="white" stroke-width="1.5" stroke-linecap="round" stroke-linejoin="round"/>
<path d="M4.97974 14.1308C5.95554 15.1036 7.19753 15.7657 8.54914 16.0338C9.90064 16.3018 11.3014 16.1636 12.5746 15.6368C13.8478 15.1099 14.9365 14.2178 15.7035 13.0729C16.4703 11.9282 16.8811 10.5819 16.8841 9.2041" stroke="white" stroke-width="1.5" stroke-miterlimit="10" stroke-linecap="round"/>
<path d="M5.54175 17.7083L4.84866 14.8984C4.81679 14.7759 4.81008 14.6483 4.82893 14.5231C4.84777 14.3979 4.89178 14.2779 4.95831 14.1703C5.02483 14.0625 5.1125 13.9694 5.21599 13.8966C5.31949 13.8239 5.43668 13.7727 5.56049 13.7464L8.37034 13.0439" stroke="white" stroke-width="1.5" stroke-linecap="round" stroke-linejoin="round"/>
</svg>
