<svg width="24" height="25" viewBox="0 0 24 25" fill="none" xmlns="http://www.w3.org/2000/svg">
<path fill-rule="evenodd" clip-rule="evenodd" d="M6 8.5C6 5.18629 8.68629 2.5 12 2.5C15.3137 2.5 18 5.18629 18 8.5V9.65032C18.2826 9.71225 18.5539 9.80243 18.816 9.93598C19.5686 10.3195 20.1805 10.9314 20.564 11.684C20.8113 12.1694 20.9099 12.6861 20.9558 13.2482C21 13.7894 21 14.4537 21 15.2587V16.7413C21 17.5463 21 18.2106 20.9558 18.7518C20.9099 19.3139 20.8113 19.8306 20.564 20.316C20.1805 21.0686 19.5686 21.6805 18.816 22.064C18.3306 22.3113 17.8139 22.4099 17.2518 22.4558C16.7106 22.5 16.0463 22.5 15.2413 22.5H8.75873C7.95375 22.5 7.28938 22.5 6.74818 22.4558C6.18608 22.4099 5.66938 22.3113 5.18404 22.064C4.43139 21.6805 3.81947 21.0686 3.43598 20.316C3.18868 19.8306 3.09012 19.3139 3.0442 18.7518C2.99998 18.2106 2.99999 17.5463 3 16.7413V15.2587C2.99999 14.4537 2.99998 13.7894 3.0442 13.2482C3.09012 12.6861 3.18868 12.1694 3.43598 11.684C3.81947 10.9314 4.43139 10.3195 5.18404 9.93598C5.44614 9.80243 5.71739 9.71226 6 9.65032V8.5ZM16 8.5V9.50163H8V8.5C8 6.29086 9.79086 4.5 12 4.5C14.2091 4.5 16 6.29086 16 8.5ZM13 15C13 14.4477 12.5523 14 12 14C11.4477 14 11 14.4477 11 15V17C11 17.5523 11.4477 18 12 18C12.5523 18 13 17.5523 13 17V15Z" fill="#6F6F87"/>
</svg>
