<svg width="20" height="20" viewBox="0 0 20 20" fill="none" xmlns="http://www.w3.org/2000/svg">
<mask id="mask0_670_493" style="mask-type:luminance" maskUnits="userSpaceOnUse" x="1" y="1" width="18" height="18">
<path d="M18.3334 1.99609H1.66675V18.0044H18.3334V1.99609Z" fill="white"/>
</mask>
<g mask="url(#mask0_670_493)">
<path d="M18.2918 8.83733C18.2252 9.11149 18.0805 9.36049 17.8752 9.55399L15.1252 12.2373C15.0973 12.2666 15.0747 12.3004 15.0585 12.3373C15.0504 12.3758 15.0504 12.4155 15.0585 12.454L15.7085 16.254C15.7628 16.5339 15.7338 16.8237 15.6252 17.0873C15.5248 17.3478 15.3475 17.5717 15.1168 17.729C14.8927 17.8944 14.6276 17.9952 14.3502 18.0207H14.2418C13.9976 18.0212 13.7571 17.9611 13.5418 17.8457L10.1252 16.0623C10.0897 16.0418 10.0494 16.0311 10.0085 16.0311C9.9675 16.0311 9.92733 16.0418 9.89183 16.0623L6.47517 17.854C6.21887 17.9882 5.93044 18.0487 5.64183 18.029C5.36154 18.0051 5.09332 17.9042 4.86683 17.7373C4.63834 17.5742 4.46183 17.3484 4.3585 17.0873C4.25306 16.8229 4.22417 16.5341 4.27516 16.254L4.92517 12.4623C4.93729 12.4244 4.93729 12.3836 4.92517 12.3457C4.91221 12.3089 4.89242 12.275 4.86683 12.2457L2.11683 9.54566C1.91705 9.35249 1.77557 9.10707 1.7085 8.83733C1.62744 8.56549 1.62744 8.27589 1.7085 8.00402C1.80011 7.73644 1.96511 7.49999 2.18466 7.3217C2.40422 7.14341 2.66947 7.03043 2.95017 6.99568L6.70017 6.44569C6.73752 6.44475 6.77318 6.42985 6.80017 6.40398C6.83192 6.37965 6.8576 6.34828 6.87517 6.31233L8.62517 2.82901C8.74467 2.57915 8.9325 2.36826 9.16683 2.22068C9.34483 2.10829 9.54458 2.03481 9.753 2.00513C9.96142 1.97546 10.1737 1.99022 10.376 2.04847C10.5783 2.10672 10.766 2.20715 10.9267 2.34312C11.0874 2.47908 11.2175 2.6475 11.3085 2.83734L13.0418 6.30399C13.0627 6.34248 13.0911 6.37645 13.1252 6.40398C13.1555 6.42979 13.1937 6.44453 13.2335 6.44569L17.0418 6.99568C17.3187 7.03772 17.5784 7.15606 17.7918 7.33737C18.0013 7.5182 18.1593 7.75101 18.2502 8.01237C18.3388 8.27845 18.3533 8.56366 18.2918 8.83733Z" fill="url(#paint0_linear_670_493)"/>
</g>
<defs>
<linearGradient id="paint0_linear_670_493" x1="6.69253" y1="19.571" x2="6.69253" y2="2.75939" gradientUnits="userSpaceOnUse">
<stop stop-color="#5C2ED1"/>
<stop offset="1" stop-color="#A175FF"/>
</linearGradient>
</defs>
</svg>
