<svg width="20" height="20" viewBox="0 0 20 20" fill="none" xmlns="http://www.w3.org/2000/svg">
<path d="M14.6841 6.14496C13.7733 5.23696 12.6141 4.61891 11.3526 4.36877C10.0911 4.11862 8.78375 4.24756 7.59544 4.73935C6.40713 5.23113 5.39103 6.06372 4.67522 7.13217C3.95942 8.20062 3.57598 9.45709 3.57324 10.7431" stroke="#6F6F87" stroke-width="1.75" stroke-miterlimit="10" stroke-linecap="round"/>
<path d="M14.1615 2.80566L14.8084 5.42818C14.8382 5.54251 14.8444 5.66167 14.8268 5.77848C14.8092 5.89529 14.7682 6.00732 14.706 6.10782C14.644 6.20832 14.5621 6.29518 14.4655 6.36317C14.369 6.43117 14.2596 6.47888 14.1441 6.50342L11.5215 7.15905" stroke="#6F6F87" stroke-width="1.75" stroke-linecap="round" stroke-linejoin="round"/>
<path d="M5.31445 13.8553C6.2252 14.7633 7.38439 15.3812 8.6459 15.6314C9.9073 15.8816 11.2147 15.7526 12.403 15.2609C13.5913 14.7691 14.6074 13.9365 15.3233 12.868C16.039 11.7996 16.4224 10.5431 16.4252 9.25708" stroke="#6F6F87" stroke-width="1.75" stroke-miterlimit="10" stroke-linecap="round"/>
<path d="M5.83911 17.1944L5.19223 14.5719C5.16249 14.4576 5.15622 14.3384 5.17381 14.2216C5.1914 14.1048 5.23248 13.9928 5.29457 13.8923C5.35666 13.7917 5.43848 13.7049 5.53507 13.6369C5.63167 13.569 5.74105 13.5212 5.85661 13.4967L8.47913 12.8411" stroke="#6F6F87" stroke-width="1.75" stroke-linecap="round" stroke-linejoin="round"/>
</svg>
