<svg width="24" height="24" viewBox="0 0 24 24" fill="none" xmlns="http://www.w3.org/2000/svg">
<path d="M6.01471 15.8089C7.81775 15.8089 9.27941 14.3473 9.27941 12.5442C9.27941 10.7412 7.81775 9.27954 6.01471 9.27954C4.21166 9.27954 2.75 10.7412 2.75 12.5442C2.75 14.3473 4.21166 15.8089 6.01471 15.8089Z" stroke="black" stroke-width="1.5" stroke-linecap="round" stroke-linejoin="round"/>
<path d="M17.9854 9.27941C19.7884 9.27941 21.2501 7.81775 21.2501 6.01471C21.2501 4.21166 19.7884 2.75 17.9854 2.75C16.1823 2.75 14.7207 4.21166 14.7207 6.01471C14.7207 7.81775 16.1823 9.27941 17.9854 9.27941Z" stroke="black" stroke-width="1.5" stroke-linecap="round" stroke-linejoin="round"/>
<path d="M17.9854 21.2501C19.7884 21.2501 21.2501 19.7884 21.2501 17.9854C21.2501 16.1823 19.7884 14.7207 17.9854 14.7207C16.1823 14.7207 14.7207 16.1823 14.7207 17.9854C14.7207 19.7884 16.1823 21.2501 17.9854 21.2501Z" stroke="black" stroke-width="1.5" stroke-linecap="round" stroke-linejoin="round"/>
<path d="M15.0151 16.636L8.98633 13.8936" stroke="black" stroke-width="1.5" stroke-linecap="round" stroke-linejoin="round"/>
<path d="M15.1115 7.58179L8.88672 10.9771" stroke="black" stroke-width="1.5" stroke-linecap="round" stroke-linejoin="round"/>
</svg>
