<svg width="64" height="64" viewBox="0 0 64 64" fill="none" xmlns="http://www.w3.org/2000/svg">
<rect width="64" height="64" rx="20" fill="url(#paint0_radial_294_1599)"/>
<path d="M46.8375 17.5287C47.0013 17.8837 47.2775 18.1638 47.6425 18.3225L49.1613 18.9812C49.2621 19.0254 49.3479 19.098 49.4082 19.1901C49.4684 19.2822 49.5005 19.3899 49.5005 19.5C49.5005 19.6101 49.4684 19.7178 49.4082 19.8099C49.3479 19.902 49.2621 19.9746 49.1613 20.0188L47.655 20.6775C47.2954 20.8294 47.0077 21.1135 46.8513 21.4713L45.6588 24.18C45.4463 24.6063 44.805 24.6063 44.5913 24.18L43.3988 21.4713C43.2386 21.1161 42.9522 20.8332 42.595 20.6775L41.0888 20.0188C40.9879 19.9746 40.9021 19.902 40.8419 19.8099C40.7816 19.7178 40.7496 19.6101 40.7496 19.5C40.7496 19.3899 40.7816 19.2822 40.8419 19.1901C40.9021 19.098 40.9879 19.0254 41.0888 18.9812L42.595 18.3225C42.9547 18.1706 43.2424 17.8865 43.3988 17.5287L44.5913 14.82C44.8038 14.3938 45.445 14.3938 45.6588 14.82L46.8375 17.5287ZM31.9788 18.4562C32.096 18.7028 32.2997 18.8977 32.5513 19.0038L33.6313 19.4537C33.9563 19.6 33.9563 20.025 33.6313 20.1713L32.5513 20.6212C32.2969 20.7229 32.0917 20.9191 31.9788 21.1687L31.1338 23.0312C30.9775 23.3225 30.5213 23.3225 30.3663 23.0312L29.5213 21.1687C29.4046 20.9218 29.2007 20.7268 28.9488 20.6212L27.8688 20.1713C27.797 20.1426 27.7355 20.0931 27.6922 20.0292C27.6488 19.9652 27.6257 19.8898 27.6257 19.8125C27.6257 19.7352 27.6488 19.6598 27.6922 19.5958C27.7355 19.5319 27.797 19.4824 27.8688 19.4537L28.9488 19.0038C29.2032 18.9021 29.4084 18.7059 29.5213 18.4562L30.3663 16.5938C30.5225 16.3025 30.9788 16.3025 31.1338 16.5938L31.9788 18.4562ZM17 44.5L14.9213 46.5338C14.7875 46.6669 14.6813 46.8251 14.6088 46.9994C14.5363 47.1737 14.499 47.3606 14.499 47.5494C14.499 47.7381 14.5363 47.925 14.6088 48.0993C14.6813 48.2736 14.7875 48.4319 14.9213 48.565L15.4338 49.0775C15.9838 49.6425 16.8963 49.6425 17.4463 49.065L19.5 47.0088L19.4963 47.005L37 29.5L39.0925 27.4163C39.6363 26.86 39.6363 25.8663 39.0925 25.3225L38.68 24.9087C38.125 24.3625 37 24.5 36.375 25.125L17 44.5ZM44.4375 32.3725C44.1797 32.2485 43.9755 32.0354 43.8625 31.7725L43.0063 29.745C42.8463 29.4187 42.3913 29.4187 42.2438 29.745L41.3875 31.7738C41.2744 32.0362 41.0702 32.2489 40.8125 32.3725L39.7413 32.8625C39.42 33.025 39.42 33.4875 39.7413 33.6375L40.8113 34.1275C41.0691 34.2515 41.2733 34.4646 41.3863 34.7275L42.2438 36.755C42.4038 37.0813 42.8588 37.0813 43.0063 36.755L43.8625 34.7275C43.9754 34.4646 44.1797 34.2514 44.4375 34.1275L45.5088 33.6375C45.83 33.475 45.83 33.0125 45.5088 32.8625L44.4375 32.3725ZM27 29.5C27.3316 29.5 27.6495 29.3683 27.8839 29.1339C28.1183 28.8995 28.25 28.5815 28.25 28.25C28.25 27.9185 28.1183 27.6005 27.8839 27.3661C27.6495 27.1317 27.3316 27 27 27C26.6685 27 26.3506 27.1317 26.1162 27.3661C25.8817 27.6005 25.75 27.9185 25.75 28.25C25.75 28.5815 25.8817 28.8995 26.1162 29.1339C26.3506 29.3683 26.6685 29.5 27 29.5ZM49.5 28.25C49.5 28.5815 49.3683 28.8995 49.1339 29.1339C48.8995 29.3683 48.5816 29.5 48.25 29.5C47.9185 29.5 47.6006 29.3683 47.3662 29.1339C47.1317 28.8995 47 28.5815 47 28.25C47 27.9185 47.1317 27.6005 47.3662 27.3661C47.6006 27.1317 47.9185 27 48.25 27C48.5816 27 48.8995 27.1317 49.1339 27.3661C49.3683 27.6005 49.5 27.9185 49.5 28.25ZM35.75 17C36.0816 17 36.3995 16.8683 36.6339 16.6339C36.8683 16.3995 37 16.0815 37 15.75C37 15.4185 36.8683 15.1005 36.6339 14.8661C36.3995 14.6317 36.0816 14.5 35.75 14.5C35.4185 14.5 35.1006 14.6317 34.8662 14.8661C34.6317 15.1005 34.5 15.4185 34.5 15.75C34.5 16.0815 34.6317 16.3995 34.8662 16.6339C35.1006 16.8683 35.4185 17 35.75 17ZM37 38.25C37 38.5815 36.8683 38.8995 36.6339 39.1339C36.3995 39.3683 36.0816 39.5 35.75 39.5C35.4185 39.5 35.1006 39.3683 34.8662 39.1339C34.6317 38.8995 34.5 38.5815 34.5 38.25C34.5 37.9185 34.6317 37.6005 34.8662 37.3661C35.1006 37.1317 35.4185 37 35.75 37C36.0816 37 36.3995 37.1317 36.6339 37.3661C36.8683 37.6005 37 37.9185 37 38.25Z" fill="white"/>
<defs>
<radialGradient id="paint0_radial_294_1599" cx="0" cy="0" r="1" gradientUnits="userSpaceOnUse" gradientTransform="translate(32 32) scale(44.4317)">
<stop stop-color="#5C2ED1"/>
<stop offset="1" stop-color="#A175FF"/>
</radialGradient>
</defs>
</svg>
