<svg width="20" height="20" viewBox="0 0 20 20" fill="none" xmlns="http://www.w3.org/2000/svg">
<path d="M2.3144 16.4857L2.82032 13.0181C2.8508 12.7911 2.9544 12.5802 3.11544 12.4173L12.9176 2.60462C13.0446 2.47632 13.2023 2.38278 13.3758 2.33295C13.5493 2.28312 13.7326 2.27868 13.9084 2.32005C14.8084 2.56919 15.6241 3.05722 16.2693 3.7324C16.9422 4.38172 17.4267 5.20126 17.6711 6.10389C17.7125 6.27958 17.7081 6.46295 17.6582 6.63643C17.6084 6.80991 17.5148 6.96769 17.3866 7.09464L7.57384 16.8968C7.41097 17.0578 7.20007 17.1614 6.97306 17.1919L3.50542 17.6978C3.34165 17.7215 3.17463 17.7062 3.01785 17.6533C2.86107 17.6005 2.71895 17.5114 2.60298 17.3934C2.48701 17.2753 2.40046 17.1317 2.35033 16.974C2.3002 16.8163 2.28789 16.6491 2.3144 16.4857Z" stroke="white" stroke-width="1.5" stroke-linecap="round" stroke-linejoin="round"/>
<path d="M11.0626 4.46973L15.5315 8.9387" stroke="white" stroke-width="1.5" stroke-linecap="round" stroke-linejoin="round"/>
</svg>
